<?xml version="1.0" encoding="UTF-8" standalone="no"?>
<!-- Created with Inkscape (http://www.inkscape.org/) -->

<svg
   xmlns:dc="http://purl.org/dc/elements/1.1/"
   xmlns:cc="http://creativecommons.org/ns#"
   xmlns:rdf="http://www.w3.org/1999/02/22-rdf-syntax-ns#"
   xmlns:svg="http://www.w3.org/2000/svg"
   xmlns="http://www.w3.org/2000/svg"
   xmlns:sodipodi="http://sodipodi.sourceforge.net/DTD/sodipodi-0.dtd"
   xmlns:inkscape="http://www.inkscape.org/namespaces/inkscape"
   width="29.283911mm"
   height="9.6983261mm"
   viewBox="0 0 29.283911 9.6983261"
   version="1.1"
   id="svg8"
   inkscape:version="0.92.2 5c3e80d, 2017-08-06"
   sodipodi:docname="title.svg">
  <defs
     id="defs2" />
  <sodipodi:namedview
     id="base"
     pagecolor="#ffffff"
     bordercolor="#666666"
     borderopacity="1.0"
     inkscape:pageopacity="0.0"
     inkscape:pageshadow="2"
     inkscape:zoom="3.959798"
     inkscape:cx="43.742432"
     inkscape:cy="-3.9564467"
     inkscape:document-units="mm"
     inkscape:current-layer="layer1"
     showgrid="false"
     fit-margin-top="0"
     fit-margin-left="0"
     fit-margin-right="0"
     fit-margin-bottom="0"
     inkscape:window-width="1600"
     inkscape:window-height="848"
     inkscape:window-x="0"
     inkscape:window-y="0"
     inkscape:window-maximized="1" />
  <metadata
     id="metadata5">
    <rdf:RDF>
      <cc:Work
         rdf:about="">
        <dc:format>image/svg+xml</dc:format>
        <dc:type
           rdf:resource="http://purl.org/dc/dcmitype/StillImage" />
        <dc:title />
      </cc:Work>
    </rdf:RDF>
  </metadata>
  <g
     inkscape:label="Layer 1"
     inkscape:groupmode="layer"
     id="layer1"
     transform="translate(-18.608694,-63.519648)">
    <g
       aria-label="W"
       transform="skewX(17.192124)"
       style="font-style:normal;font-weight:normal;font-size:10.58333302px;line-height:1.25;font-family:sans-serif;letter-spacing:0px;word-spacing:0px;fill:#000000;fill-opacity:1;stroke:none;stroke-width:0.26458332"
       id="text4506" />
    <g
       aria-label="R"
       style="font-style:normal;font-weight:normal;font-size:10.58333302px;line-height:1.25;font-family:sans-serif;letter-spacing:0px;word-spacing:0px;fill:#000000;fill-opacity:1;stroke:none;stroke-width:0.26458332"
       id="text4510" />
    <g
       style="font-style:normal;font-variant:normal;font-weight:normal;font-stretch:normal;font-size:10.58333302px;line-height:1.25;font-family:Mael;-inkscape-font-specification:Mael;letter-spacing:0px;word-spacing:0px;fill:#000000;fill-opacity:1;stroke:none;stroke-width:0.26458332"
       id="text4514" />
    <g
       aria-label="0"
       style="font-style:normal;font-variant:normal;font-weight:normal;font-stretch:normal;font-size:6.97907591px;line-height:1.25;font-family:Mael;-inkscape-font-specification:Mael;letter-spacing:0px;word-spacing:0px;fill:#000000;fill-opacity:1;stroke:none;stroke-width:0.17447689"
       id="text4524" />
    <path
       id="path4526"
       style="fill:#000000;stroke:none;stroke-width:0.05331479;stroke-miterlimit:4;stroke-dasharray:none"
       d="m 32.742506,66.90818 a 0.208105,0.57228881 0 0 1 -0.208105,0.572289 0.208105,0.57228881 0 0 1 -0.208105,-0.572289 0.208105,0.57228881 0 0 1 0.208105,-0.572289 0.208105,0.57228881 0 0 1 0.208105,0.572289 z m 0.09495,-1.710138 q 0.669991,0 1.011966,0.125623 0.439681,0.160519 0.690928,0.600201 0.23031,0.397807 0.23031,0.893322 0,0.474577 -0.272184,0.921238 -0.265205,0.44666 -0.690929,0.635095 -0.418744,0.188435 -1.137589,0.188435 -1.326025,0 -1.716853,-0.265204 -0.565305,-0.38385 -0.565305,-1.193422 0,-0.635096 0.244268,-1.081757 0.279163,-0.509473 0.837489,-0.68395 0.446661,-0.139581 1.367899,-0.139581 z m -0.314059,0.202393 q -0.37687,0.007 -0.746761,0.362912 -0.509472,0.495514 -0.509472,1.151548 0,0.558326 0.334995,0.970091 0.362912,0.439682 0.90728,0.439682 0.544368,0 0.935196,-0.404786 0.390829,-0.404787 0.390829,-0.949155 0,-0.474577 -0.279163,-0.935196 -0.167498,-0.272184 -0.439682,-0.446661 -0.293121,-0.188435 -0.593222,-0.188435 z m 2.827961,-1.80271 q 0.518583,0.0635 0.677333,0.613833 0.08467,0.28575 0.08467,1.005417 0,0.381 -0.03175,1.005416 -0.179917,3.556 -0.79375,4.106333 0.941917,0 2.57175,-0.03175 -0.751417,-0.275166 -0.751417,-2.465916 0,-2.021417 0.497417,-3.884083 0.169333,-0.04233 0.338667,-0.04233 0.60325,0 0.963083,0.486834 0.328083,0.433916 0.328083,1.058333 0,0.772583 -0.47625,1.227667 -0.47625,0.4445 -1.248833,0.391583 0.328083,0.53975 1.280583,1.471083 0.465667,0.4445 1.386417,1.354667 1.4605,1.49225 2.95275,2.31775 1.830916,1.005416 3.577166,1.005416 0.613834,0 1.185334,-0.137583 -0.127,0.01058 -0.254,0.01058 -1.005417,0 -2.2225,-0.53975 -1.640417,-0.73025 -3.07975,-2.180166 -0.53975,-0.53975 -1.608667,-1.61925 -0.9525,-0.994833 -1.322916,-1.778 1.545166,-0.846667 1.545166,-1.756833 0,-0.560917 -0.592666,-0.973667 -0.455084,-0.3175 -1.100667,-0.47625 -0.73025,-0.169333 -1.947333,-0.179917 -0.66675,0 -1.957917,0.01058 z m -11.523905,6.80109 q -0.138579,-0.105834 -0.753298,-1.100667 -1.422923,-2.307167 -1.972152,-3.090333 -1.47385,-2.0955 -2.467109,-2.6035 l 2.727986,-0.04233 q -0.211196,0.275167 -0.04092,0.8255 0.337273,1.090084 2.385083,3.672417 l 0.771101,-2.296587 q -0.452225,-0.709084 -0.692078,-1.005417 -0.417724,-0.529167 -0.914851,-0.836083 -0.222486,-0.137584 -0.738264,-0.402167 h 3.852333 q -0.325858,0.34925 -0.413565,0.47625 -0.208681,0.3175 -0.110447,0.635 0.108059,0.34925 0.635126,1.026583 0.222721,0.275167 0.794636,0.994834 0.157466,0.201083 0.999464,1.280583 0.381924,-1.36525 0.428816,-1.55575 0.222884,-1.058333 0.04279,-1.640417 -0.252136,-0.814916 -1.31018,-1.121833 0.490107,0.01058 1.093357,0.01058 1.439333,0 1.839746,-0.07408 -1.062804,3.577167 -1.61189,5.736167 -0.135884,0.518583 -0.247325,1.04775 -0.678744,-0.8255 -2.964127,-3.799417 -0.08999,0.22225 -0.360468,1.058333 l -0.578267,1.756834 q -0.159564,0.47625 -0.395491,1.04775 z" />
  </g>
</svg>
