{
    "accessors" : [
        {
            "bufferView" : 0, 
            "componentType" : 5123, 
            "count" : 2793, 
            "max" : [
                467
            ], 
            "min" : [
                0
            ], 
            "type" : "SCALAR"
        }, 
        {
            "bufferView" : 1, 
            "componentType" : 5126, 
            "count" : 468, 
            "max" : [
                8.601544380187988, 
                12.718935012817383, 
                1.471240758895874
            ], 
            "min" : [
                -8.601544380187988, 
                0.0042076390236616135, 
                -1.6552226543426514
            ], 
            "type" : "VEC3"
        }, 
        {
            "bufferView" : 2, 
            "componentType" : 5126, 
            "count" : 468, 
            "max" : [
                1.0, 
                0.999969482421875, 
                0.999603271484375
            ], 
            "min" : [
                -1.0, 
                -0.9987182021141052, 
                -0.999603271484375
            ], 
            "type" : "VEC3"
        }, 
        {
            "bufferView" : 3, 
            "componentType" : 5123, 
            "count" : 468, 
            "max" : [
                15, 
                16, 
                18, 
                19
            ], 
            "min" : [
                0, 
                0, 
                0, 
                0
            ], 
            "type" : "VEC4"
        }, 
        {
            "bufferView" : 4, 
            "componentType" : 5126, 
            "count" : 468, 
            "max" : [
                1.0, 
                1.0, 
                1.0, 
                1.0
            ], 
            "min" : [
                0.0, 
                0.0, 
                0.0, 
                0.0
            ], 
            "type" : "VEC4"
        }, 
        {
            "bufferView" : 5, 
            "componentType" : 5123, 
            "count" : 468, 
            "max" : [
                19, 
                20, 
                20, 
                19
            ], 
            "min" : [
                0, 
                0, 
                0, 
                0
            ], 
            "type" : "VEC4"
        }, 
        {
            "bufferView" : 6, 
            "componentType" : 5126, 
            "count" : 468, 
            "max" : [
                1.0, 
                1.0, 
                1.0, 
                1.0
            ], 
            "min" : [
                0.0, 
                0.0, 
                0.0, 
                0.0
            ], 
            "type" : "VEC4"
        }, 
        {
            "bufferView" : 7, 
            "componentType" : 5123, 
            "count" : 468, 
            "max" : [
                13, 
                15, 
                16, 
                16
            ], 
            "min" : [
                0, 
                0, 
                0, 
                0
            ], 
            "type" : "VEC4"
        }, 
        {
            "bufferView" : 8, 
            "componentType" : 5126, 
            "count" : 468, 
            "max" : [
                0.0, 
                0.0, 
                0.21899199485778809, 
                0.22798380255699158
            ], 
            "min" : [
                0.0, 
                0.0, 
                0.0, 
                0.0
            ], 
            "type" : "VEC4"
        }, 
        {
            "bufferView" : 9, 
            "componentType" : 5123, 
            "count" : 468, 
            "max" : [
                15, 
                18, 
                20, 
                19
            ], 
            "min" : [
                0, 
                0, 
                0, 
                0
            ], 
            "type" : "VEC4"
        }, 
        {
            "bufferView" : 10, 
            "componentType" : 5126, 
            "count" : 468, 
            "max" : [
                0.8971197605133057, 
                0.07616537064313889, 
                0.9488546848297119, 
                1.0
            ], 
            "min" : [
                0.0, 
                0.0, 
                0.0, 
                0.0
            ], 
            "type" : "VEC4"
        }, 
        {
            "bufferView" : 11, 
            "componentType" : 5123, 
            "count" : 468, 
            "max" : [
                20, 
                19, 
                18, 
                18
            ], 
            "min" : [
                0, 
                0, 
                0, 
                0
            ], 
            "type" : "VEC4"
        }, 
        {
            "bufferView" : 12, 
            "componentType" : 5126, 
            "count" : 468, 
            "max" : [
                0.583560585975647, 
                1.0, 
                0.805528461933136, 
                0.3664630353450775
            ], 
            "min" : [
                0.0, 
                0.0, 
                0.0, 
                0.0
            ], 
            "type" : "VEC4"
        }, 
        {
            "bufferView" : 13, 
            "componentType" : 5123, 
            "count" : 468, 
            "max" : [
                10, 
                10, 
                0, 
                0
            ], 
            "min" : [
                0, 
                0, 
                0, 
                0
            ], 
            "type" : "VEC4"
        }, 
        {
            "bufferView" : 14, 
            "componentType" : 5126, 
            "count" : 468, 
            "max" : [
                0.3407641351222992, 
                0.0, 
                0.0, 
                0.0
            ], 
            "min" : [
                0.0, 
                0.0, 
                0.0, 
                0.0
            ], 
            "type" : "VEC4"
        }, 
        {
            "bufferView" : 15, 
            "componentType" : 5126, 
            "count" : 21, 
            "max" : [
                1.0734068155288696, 
                1.0731868743896484, 
                1.0732896327972412, 
                0.0, 
                1.1030774116516113, 
                1.1931675672531128, 
                1.195077657699585, 
                0.0, 
                1.0732542276382446, 
                0.1407342106103897, 
                0.9907731413841248, 
                0.0, 
                5.904205322265625, 
                7.263411521911621, 
                4.792367935180664, 
                1.0
            ], 
            "min" : [
                -1.0346269607543945, 
                -1.0731865167617798, 
                -0.7902162671089172, 
                0.0, 
                -0.7474711537361145, 
                -1.1928651332855225, 
                -0.49433407187461853, 
                0.0, 
                -1.0715365409851074, 
                -1.0438203811645508, 
                -1.0716912746429443, 
                0.0, 
                -10.783984184265137, 
                -13.670615196228027, 
                -11.764275550842285, 
                1.0
            ], 
            "type" : "MAT4"
        }
    ], 
    "asset" : {
        "generator" : "Khronos Blender glTF 2.0 exporter", 
        "version" : "2.0"
    }, 
    "bufferViews" : [
        {
            "buffer" : 0, 
            "byteLength" : 5586, 
            "byteOffset" : 0, 
            "target" : 34963
        }, 
        {
            "buffer" : 0, 
            "byteLength" : 5616, 
            "byteOffset" : 5588, 
            "target" : 34962
        }, 
        {
            "buffer" : 0, 
            "byteLength" : 5616, 
            "byteOffset" : 11204, 
            "target" : 34962
        }, 
        {
            "buffer" : 0, 
            "byteLength" : 3744, 
            "byteOffset" : 16820, 
            "target" : 34962
        }, 
        {
            "buffer" : 0, 
            "byteLength" : 7488, 
            "byteOffset" : 20564, 
            "target" : 34962
        }, 
        {
            "buffer" : 0, 
            "byteLength" : 3744, 
            "byteOffset" : 28052, 
            "target" : 34962
        }, 
        {
            "buffer" : 0, 
            "byteLength" : 7488, 
            "byteOffset" : 31796, 
            "target" : 34962
        }, 
        {
            "buffer" : 0, 
            "byteLength" : 3744, 
            "byteOffset" : 39284, 
            "target" : 34962
        }, 
        {
            "buffer" : 0, 
            "byteLength" : 7488, 
            "byteOffset" : 43028, 
            "target" : 34962
        }, 
        {
            "buffer" : 0, 
            "byteLength" : 3744, 
            "byteOffset" : 50516, 
            "target" : 34962
        }, 
        {
            "buffer" : 0, 
            "byteLength" : 7488, 
            "byteOffset" : 54260, 
            "target" : 34962
        }, 
        {
            "buffer" : 0, 
            "byteLength" : 3744, 
            "byteOffset" : 61748, 
            "target" : 34962
        }, 
        {
            "buffer" : 0, 
            "byteLength" : 7488, 
            "byteOffset" : 65492, 
            "target" : 34962
        }, 
        {
            "buffer" : 0, 
            "byteLength" : 3744, 
            "byteOffset" : 72980, 
            "target" : 34962
        }, 
        {
            "buffer" : 0, 
            "byteLength" : 7488, 
            "byteOffset" : 76724, 
            "target" : 34962
        }, 
        {
            "buffer" : 0, 
            "byteLength" : 1344, 
            "byteOffset" : 84212
        }
    ], 
    "buffers" : [
        {
            "byteLength" : 85556, 
            "uri" : "baseman.bin"
        }
    ], 
    "meshes" : [
        {
            "name" : "Sphere", 
            "primitives" : [
                {
                    "attributes" : {
                        "JOINTS_0" : 3, 
                        "JOINTS_1" : 5, 
                        "JOINTS_2" : 7, 
                        "JOINTS_3" : 9, 
                        "JOINTS_4" : 11, 
                        "JOINTS_5" : 13, 
                        "NORMAL" : 2, 
                        "POSITION" : 1, 
                        "WEIGHTS_0" : 4, 
                        "WEIGHTS_1" : 6, 
                        "WEIGHTS_2" : 8, 
                        "WEIGHTS_3" : 10, 
                        "WEIGHTS_4" : 12, 
                        "WEIGHTS_5" : 14
                    }, 
                    "indices" : 0
                }
            ]
        }
    ], 
    "nodes" : [
        {
            "children" : [
                1, 
                2, 
                15, 
                19
            ], 
            "name" : "Armature", 
            "translation" : [
                -0.2928231954574585, 
                6.290520668029785, 
                -0.6768913865089417
            ]
        }, 
        {
            "mesh" : 0, 
            "name" : "body_mesh", 
            "rotation" : [
                -0.0, 
                -0.0, 
                -1.0, 
                -1.862645149230957e-09
            ], 
            "scale" : [
                -1.0734068155288696, 
                -1.1950774192810059, 
                -1.0734068155288696
            ], 
            "skin" : 0, 
            "translation" : [
                0.2928231358528137, 
                -6.290519714355469, 
                0.6768913865089417
            ]
        }, 
        {
            "children" : [
                3
            ], 
            "name" : "Armature_waist", 
            "rotation" : [
                0.0779963880777359, 
                1.1884615247481634e-07, 
                9.297893122095502e-09, 
                0.9969537258148193
            ], 
            "translation" : [
                0.301601380109787, 
                1.0227012634277344, 
                0.2301928997039795
            ]
        }, 
        {
            "children" : [
                4, 
                7, 
                11
            ], 
            "name" : "Armature_chest", 
            "rotation" : [
                -0.11282659322023392, 
                3.980080154342147e-10, 
                -2.3394834514078866e-08, 
                0.9936147928237915
            ], 
            "translation" : [
                -1.6294528393245855e-08, 
                1.8598014116287231, 
                4.8521471285312145e-09
            ]
        }, 
        {
            "children" : [
                5
            ], 
            "name" : "Armature_collar", 
            "rotation" : [
                0.22583740949630737, 
                1.8766201093090018e-10, 
                4.616135740320715e-08, 
                0.9741650223731995
            ], 
            "scale" : [
                1.0, 
                0.9999999403953552, 
                0.9999998807907104
            ], 
            "translation" : [
                1.6983356943001127e-08, 
                2.7378695011138916, 
                -1.7499608873094985e-08
            ]
        }, 
        {
            "children" : [
                6
            ], 
            "name" : "Armature_neck", 
            "rotation" : [
                -0.16353270411491394, 
                -7.362389586873519e-10, 
                -3.48310074116398e-08, 
                0.9865379333496094
            ], 
            "scale" : [
                1.0, 
                0.9999999403953552, 
                1.0
            ], 
            "translation" : [
                1.9086115798927494e-08, 
                0.687177300453186, 
                -1.665112137061442e-07
            ]
        }, 
        {
            "name" : "Armature_head", 
            "rotation" : [
                -0.056781549006700516, 
                -1.1906995922572605e-07, 
                -7.413415659129896e-09, 
                0.9983866214752197
            ], 
            "translation" : [
                2.5879813847495825e-09, 
                1.1748077869415283, 
                -1.749959466224027e-08
            ]
        }, 
        {
            "children" : [
                8
            ], 
            "name" : "Armature_left_bicep", 
            "rotation" : [
                -0.41315072774887085, 
                -0.4430248737335205, 
                -0.5783887505531311, 
                0.5463533401489258
            ], 
            "scale" : [
                0.9999999403953552, 
                1.0, 
                0.9999999403953552
            ], 
            "translation" : [
                1.61994469165802, 
                2.421722412109375, 
                0.1626434028148651
            ]
        }, 
        {
            "children" : [
                9, 
                10
            ], 
            "name" : "Armature_left_forearm", 
            "rotation" : [
                0.018186379224061966, 
                -0.6345109939575195, 
                0.0156998373568058, 
                0.7725403904914856
            ], 
            "scale" : [
                1.0, 
                0.9999998807907104, 
                1.0
            ], 
            "translation" : [
                0.0, 
                2.719630241394043, 
                -2.9243528842926025e-07
            ]
        }, 
        {
            "name" : "Armature_left_hand", 
            "rotation" : [
                0.017309917137026787, 
                0.5544396638870239, 
                0.03608286380767822, 
                0.831261157989502
            ], 
            "scale" : [
                1.0000001192092896, 
                1.0, 
                0.9999999403953552
            ], 
            "translation" : [
                2.682209014892578e-07, 
                2.983114719390869, 
                1.4901161193847656e-07
            ]
        }, 
        {
            "name" : "Armature_left_thumb", 
            "rotation" : [
                0.23302742838859558, 
                0.6000819802284241, 
                -0.3394619822502136, 
                0.6858319640159607
            ], 
            "scale" : [
                1.0000001192092896, 
                1.0, 
                1.0
            ], 
            "translation" : [
                0.4444141983985901, 
                3.0668411254882812, 
                -0.017354004085063934
            ]
        }, 
        {
            "children" : [
                12
            ], 
            "name" : "Armature_right_bicep", 
            "rotation" : [
                -0.4687539339065552, 
                0.4952852427959442, 
                0.5343191027641296, 
                0.4994651973247528
            ], 
            "scale" : [
                1.0000001192092896, 
                1.000000238418579, 
                0.9999998807907104
            ], 
            "translation" : [
                -1.6856908798217773, 
                2.4383671283721924, 
                0.31898829340934753
            ]
        }, 
        {
            "children" : [
                13, 
                14
            ], 
            "name" : "Armature_right_forearm", 
            "rotation" : [
                0.00869747344404459, 
                -0.0003416427061893046, 
                -0.02239612676203251, 
                0.9997113943099976
            ], 
            "scale" : [
                0.9999999403953552, 
                0.9999999403953552, 
                0.9999998807907104
            ], 
            "translation" : [
                -2.6775524020195007e-08, 
                2.7196292877197266, 
                -1.7425983855900995e-07
            ]
        }, 
        {
            "name" : "Armature_right_hand", 
            "rotation" : [
                -0.005616459995508194, 
                -0.00012794375652447343, 
                -0.03962406888604164, 
                0.9991989135742188
            ], 
            "scale" : [
                1.0, 
                1.0, 
                0.9999999403953552
            ], 
            "translation" : [
                3.2014213502407074e-08, 
                2.9831149578094482, 
                -7.826764090168581e-07
            ]
        }, 
        {
            "name" : "Armature_right_thumb", 
            "rotation" : [
                -0.048745233565568924, 
                0.841764509677887, 
                0.40885207056999207, 
                0.34913671016693115
            ], 
            "scale" : [
                1.0, 
                0.9999996423721313, 
                1.0
            ], 
            "translation" : [
                -0.18687234818935394, 
                3.0668413639068604, 
                0.40358781814575195
            ]
        }, 
        {
            "children" : [
                16
            ], 
            "name" : "Armature_left_quad", 
            "rotation" : [
                -0.7072449922561646, 
                0.02607906423509121, 
                -0.7063135504722595, 
                0.01566958799958229
            ], 
            "scale" : [
                1.0000001192092896, 
                0.9999999403953552, 
                1.0
            ], 
            "translation" : [
                1.161264419555664, 
                0.988582193851471, 
                0.41889089345932007
            ]
        }, 
        {
            "children" : [
                17
            ], 
            "name" : "Armature_left_calf", 
            "rotation" : [
                -0.011935233138501644, 
                -0.0031016904395073652, 
                0.036286935210227966, 
                0.9992654323577881
            ], 
            "scale" : [
                1.0000001192092896, 
                1.0000001192092896, 
                1.0000001192092896
            ], 
            "translation" : [
                -4.598405212163925e-08, 
                3.4077017307281494, 
                4.2462488636374474e-08
            ]
        }, 
        {
            "children" : [
                18
            ], 
            "name" : "Armature_left_foot", 
            "rotation" : [
                0.6106374859809875, 
                0.6233357787132263, 
                -0.2445954531431198, 
                0.42278555035591125
            ], 
            "translation" : [
                4.6566128730773926e-09, 
                3.450562000274658, 
                6.193295121192932e-08
            ]
        }, 
        {
            "name" : "Armature_left_toes", 
            "rotation" : [
                0.08946610987186432, 
                -0.20353789627552032, 
                0.036264363676309586, 
                0.9742961525917053
            ], 
            "scale" : [
                0.9999999403953552, 
                0.9999998807907104, 
                0.9999999403953552
            ], 
            "translation" : [
                -7.264316082000732e-08, 
                0.8735453486442566, 
                -6.556510925292969e-07
            ]
        }, 
        {
            "children" : [
                20
            ], 
            "name" : "Armature_right_quad", 
            "rotation" : [
                -0.7069370746612549, 
                0.01564706675708294, 
                -0.7066218256950378, 
                0.026090670377016068
            ], 
            "scale" : [
                1.0, 
                1.0000001192092896, 
                1.0
            ], 
            "translation" : [
                -0.5890922546386719, 
                0.988582193851471, 
                0.41889089345932007
            ]
        }, 
        {
            "children" : [
                21
            ], 
            "name" : "Armature_right_calf", 
            "rotation" : [
                0.012153706513345242, 
                -0.001157880644313991, 
                0.03621435537934303, 
                0.9992694854736328
            ], 
            "scale" : [
                0.9999998807907104, 
                1.0000001192092896, 
                1.0
            ], 
            "translation" : [
                8.847564458847046e-09, 
                3.4077014923095703, 
                1.43738816404948e-07
            ]
        }, 
        {
            "children" : [
                22
            ], 
            "name" : "Armature_right_foot", 
            "rotation" : [
                0.5153496861457825, 
                0.6797325015068054, 
                -0.4088028073310852, 
                0.32443609833717346
            ], 
            "scale" : [
                1.0000001192092896, 
                1.0, 
                1.0000001192092896
            ], 
            "translation" : [
                -2.537854015827179e-08, 
                3.450561046600342, 
                -2.5966357952711405e-08
            ]
        }, 
        {
            "name" : "Armature_right_toes", 
            "rotation" : [
                0.09238272160291672, 
                -0.16173961758613586, 
                0.028012434020638466, 
                0.9821003675460815
            ], 
            "scale" : [
                0.9999999403953552, 
                0.9999999403953552, 
                0.9999999403953552
            ], 
            "translation" : [
                5.960464477539063e-08, 
                0.8735455870628357, 
                -3.725290298461914e-07
            ]
        }
    ], 
    "scene" : 0, 
    "scenes" : [
        {
            "name" : "Scene", 
            "nodes" : [
                0
            ]
        }
    ], 
    "skins" : [
        {
            "inverseBindMatrices" : 15, 
            "joints" : [
                2, 
                3, 
                4, 
                5, 
                6, 
                7, 
                8, 
                9, 
                10, 
                11, 
                12, 
                13, 
                14, 
                15, 
                16, 
                17, 
                18, 
                19, 
                20, 
                21, 
                22
            ], 
            "skeleton" : 0
        }
    ]
}
