{
    "accessors" : [
        {
            "bufferView" : 0, 
            "componentType" : 5121, 
            "count" : 6, 
            "max" : [
                3
            ], 
            "min" : [
                0
            ], 
            "type" : "SCALAR"
        }, 
        {
            "bufferView" : 1, 
            "componentType" : 5126, 
            "count" : 4, 
            "max" : [
                0.9999997615814209, 
                1.0, 
                0.9999996423721313
            ], 
            "min" : [
                -1.000000238418579, 
                -1.0, 
                0.9999994039535522
            ], 
            "type" : "VEC3"
        }, 
        {
            "bufferView" : 2, 
            "componentType" : 5126, 
            "count" : 4, 
            "max" : [
                -1.1920928955078125e-07, 
                0.0, 
                1.0
            ], 
            "min" : [
                -1.1920928955078125e-07, 
                0.0, 
                1.0
            ], 
            "type" : "VEC3"
        }, 
        {
            "bufferView" : 3, 
            "componentType" : 5121, 
            "count" : 6, 
            "max" : [
                3
            ], 
            "min" : [
                0
            ], 
            "type" : "SCALAR"
        }, 
        {
            "bufferView" : 4, 
            "componentType" : 5126, 
            "count" : 4, 
            "max" : [
                1.0000001192092896, 
                1.0, 
                1.0000009536743164
            ], 
            "min" : [
                -1.0000005960464478, 
                1.0, 
                -0.9999997019767761
            ], 
            "type" : "VEC3"
        }, 
        {
            "bufferView" : 5, 
            "componentType" : 5126, 
            "count" : 4, 
            "max" : [
                0.0, 
                1.0, 
                0.0
            ], 
            "min" : [
                0.0, 
                1.0, 
                0.0
            ], 
            "type" : "VEC3"
        }, 
        {
            "bufferView" : 6, 
            "componentType" : 5126, 
            "count" : 4, 
            "max" : [
                1.0, 
                2.980232594040899e-08, 
                4.470338765827364e-08, 
                1.0
            ], 
            "min" : [
                1.0, 
                2.980232594040899e-08, 
                4.470338765827364e-08, 
                1.0
            ], 
            "type" : "VEC4"
        }, 
        {
            "bufferView" : 7, 
            "componentType" : 5126, 
            "count" : 4, 
            "max" : [
                1.0, 
                1.0
            ], 
            "min" : [
                0.0, 
                0.0
            ], 
            "type" : "VEC2"
        }, 
        {
            "bufferView" : 8, 
            "componentType" : 5121, 
            "count" : 18, 
            "max" : [
                11
            ], 
            "min" : [
                0
            ], 
            "type" : "SCALAR"
        }, 
        {
            "bufferView" : 9, 
            "componentType" : 5126, 
            "count" : 12, 
            "max" : [
                0.9999998211860657, 
                1.0, 
                1.0000009536743164
            ], 
            "min" : [
                -1.000001311302185, 
                -1.0, 
                -0.9999998807907104
            ], 
            "type" : "VEC3"
        }, 
        {
            "bufferView" : 10, 
            "componentType" : 5126, 
            "count" : 12, 
            "max" : [
                0.0, 
                1.0, 
                1.0
            ], 
            "min" : [
                -4.1723257027115324e-07, 
                -4.2598455252118583e-07, 
                0.0
            ], 
            "type" : "VEC3"
        }, 
        {
            "bufferView" : 11, 
            "componentType" : 5121, 
            "count" : 30, 
            "max" : [
                19
            ], 
            "min" : [
                0
            ], 
            "type" : "SCALAR"
        }, 
        {
            "bufferView" : 12, 
            "componentType" : 5126, 
            "count" : 20, 
            "max" : [
                1.0, 
                1.0, 
                1.0000019073486328
            ], 
            "min" : [
                -1.0000016689300537, 
                -0.9999999403953552, 
                -1.0
            ], 
            "type" : "VEC3"
        }, 
        {
            "bufferView" : 13, 
            "componentType" : 5126, 
            "count" : 20, 
            "max" : [
                1.0, 
                1.0, 
                1.0
            ], 
            "min" : [
                -4.768372150465439e-07, 
                -7.809716748852225e-07, 
                0.0
            ], 
            "type" : "VEC3"
        }, 
        {
            "bufferView" : 14, 
            "componentType" : 5121, 
            "count" : 12, 
            "max" : [
                7
            ], 
            "min" : [
                0
            ], 
            "type" : "SCALAR"
        }, 
        {
            "bufferView" : 15, 
            "componentType" : 5126, 
            "count" : 8, 
            "max" : [
                1.0, 
                1.0, 
                1.0
            ], 
            "min" : [
                -1.000000238418579, 
                -1.0, 
                -1.0
            ], 
            "type" : "VEC3"
        }, 
        {
            "bufferView" : 16, 
            "componentType" : 5126, 
            "count" : 8, 
            "max" : [
                1.0, 
                0.0, 
                1.0
            ], 
            "min" : [
                -8.940695295223122e-08, 
                0.0, 
                -0.0
            ], 
            "type" : "VEC3"
        }, 
        {
            "bufferView" : 17, 
            "componentType" : 5121, 
            "count" : 30, 
            "max" : [
                19
            ], 
            "min" : [
                0
            ], 
            "type" : "SCALAR"
        }, 
        {
            "bufferView" : 18, 
            "componentType" : 5126, 
            "count" : 20, 
            "max" : [
                1.0, 
                1.0, 
                1.0
            ], 
            "min" : [
                -1.0, 
                -1.0, 
                -1.0
            ], 
            "type" : "VEC3"
        }, 
        {
            "bufferView" : 19, 
            "componentType" : 5126, 
            "count" : 20, 
            "max" : [
                1.0, 
                1.0, 
                1.0
            ], 
            "min" : [
                -1.0, 
                0.0, 
                -1.0
            ], 
            "type" : "VEC3"
        }, 
        {
            "bufferView" : 20, 
            "componentType" : 5121, 
            "count" : 24, 
            "max" : [
                15
            ], 
            "min" : [
                0
            ], 
            "type" : "SCALAR"
        }, 
        {
            "bufferView" : 21, 
            "componentType" : 5126, 
            "count" : 16, 
            "max" : [
                1.0, 
                1.0, 
                1.0
            ], 
            "min" : [
                -1.0, 
                -1.0, 
                -1.0
            ], 
            "type" : "VEC3"
        }, 
        {
            "bufferView" : 22, 
            "componentType" : 5126, 
            "count" : 16, 
            "max" : [
                1.0, 
                1.0, 
                1.0
            ], 
            "min" : [
                -1.0, 
                0.0, 
                0.0
            ], 
            "type" : "VEC3"
        }, 
        {
            "bufferView" : 23, 
            "componentType" : 5121, 
            "count" : 12, 
            "max" : [
                9
            ], 
            "min" : [
                0
            ], 
            "type" : "SCALAR"
        }, 
        {
            "bufferView" : 24, 
            "componentType" : 5126, 
            "count" : 10, 
            "max" : [
                1.0, 
                1.0, 
                1.0
            ], 
            "min" : [
                -1.0, 
                -1.0, 
                -1.0
            ], 
            "type" : "VEC3"
        }, 
        {
            "bufferView" : 25, 
            "componentType" : 5126, 
            "count" : 10, 
            "max" : [
                1.0, 
                0.7071067690849304, 
                0.7071067690849304
            ], 
            "min" : [
                -1.0, 
                0.0, 
                0.0
            ], 
            "type" : "VEC3"
        }, 
        {
            "bufferView" : 26, 
            "componentType" : 5121, 
            "count" : 18, 
            "max" : [
                11
            ], 
            "min" : [
                0
            ], 
            "type" : "SCALAR"
        }, 
        {
            "bufferView" : 27, 
            "componentType" : 5126, 
            "count" : 12, 
            "max" : [
                1.0, 
                1.0, 
                1.0
            ], 
            "min" : [
                -1.0, 
                -1.0, 
                -1.0
            ], 
            "type" : "VEC3"
        }, 
        {
            "bufferView" : 28, 
            "componentType" : 5126, 
            "count" : 12, 
            "max" : [
                1.0, 
                1.0, 
                0.0
            ], 
            "min" : [
                -1.0, 
                0.0, 
                0.0
            ], 
            "type" : "VEC3"
        }
    ], 
    "asset" : {
        "generator" : "Khronos Blender glTF 2.0 exporter", 
        "version" : "2.0"
    }, 
    "bufferViews" : [
        {
            "buffer" : 0, 
            "byteLength" : 6, 
            "byteOffset" : 0, 
            "target" : 34963
        }, 
        {
            "buffer" : 0, 
            "byteLength" : 48, 
            "byteOffset" : 8, 
            "target" : 34962
        }, 
        {
            "buffer" : 0, 
            "byteLength" : 48, 
            "byteOffset" : 56, 
            "target" : 34962
        }, 
        {
            "buffer" : 0, 
            "byteLength" : 6, 
            "byteOffset" : 104, 
            "target" : 34963
        }, 
        {
            "buffer" : 0, 
            "byteLength" : 48, 
            "byteOffset" : 112, 
            "target" : 34962
        }, 
        {
            "buffer" : 0, 
            "byteLength" : 48, 
            "byteOffset" : 160, 
            "target" : 34962
        }, 
        {
            "buffer" : 0, 
            "byteLength" : 64, 
            "byteOffset" : 208, 
            "target" : 34962
        }, 
        {
            "buffer" : 0, 
            "byteLength" : 32, 
            "byteOffset" : 272, 
            "target" : 34962
        }, 
        {
            "buffer" : 0, 
            "byteLength" : 18, 
            "byteOffset" : 304, 
            "target" : 34963
        }, 
        {
            "buffer" : 0, 
            "byteLength" : 144, 
            "byteOffset" : 324, 
            "target" : 34962
        }, 
        {
            "buffer" : 0, 
            "byteLength" : 144, 
            "byteOffset" : 468, 
            "target" : 34962
        }, 
        {
            "buffer" : 0, 
            "byteLength" : 30, 
            "byteOffset" : 612, 
            "target" : 34963
        }, 
        {
            "buffer" : 0, 
            "byteLength" : 240, 
            "byteOffset" : 644, 
            "target" : 34962
        }, 
        {
            "buffer" : 0, 
            "byteLength" : 240, 
            "byteOffset" : 884, 
            "target" : 34962
        }, 
        {
            "buffer" : 0, 
            "byteLength" : 12, 
            "byteOffset" : 1124, 
            "target" : 34963
        }, 
        {
            "buffer" : 0, 
            "byteLength" : 96, 
            "byteOffset" : 1136, 
            "target" : 34962
        }, 
        {
            "buffer" : 0, 
            "byteLength" : 96, 
            "byteOffset" : 1232, 
            "target" : 34962
        }, 
        {
            "buffer" : 0, 
            "byteLength" : 30, 
            "byteOffset" : 1328, 
            "target" : 34963
        }, 
        {
            "buffer" : 0, 
            "byteLength" : 240, 
            "byteOffset" : 1360, 
            "target" : 34962
        }, 
        {
            "buffer" : 0, 
            "byteLength" : 240, 
            "byteOffset" : 1600, 
            "target" : 34962
        }, 
        {
            "buffer" : 0, 
            "byteLength" : 24, 
            "byteOffset" : 1840, 
            "target" : 34963
        }, 
        {
            "buffer" : 0, 
            "byteLength" : 192, 
            "byteOffset" : 1864, 
            "target" : 34962
        }, 
        {
            "buffer" : 0, 
            "byteLength" : 192, 
            "byteOffset" : 2056, 
            "target" : 34962
        }, 
        {
            "buffer" : 0, 
            "byteLength" : 12, 
            "byteOffset" : 2248, 
            "target" : 34963
        }, 
        {
            "buffer" : 0, 
            "byteLength" : 120, 
            "byteOffset" : 2260, 
            "target" : 34962
        }, 
        {
            "buffer" : 0, 
            "byteLength" : 120, 
            "byteOffset" : 2380, 
            "target" : 34962
        }, 
        {
            "buffer" : 0, 
            "byteLength" : 18, 
            "byteOffset" : 2500, 
            "target" : 34963
        }, 
        {
            "buffer" : 0, 
            "byteLength" : 144, 
            "byteOffset" : 2520, 
            "target" : 34962
        }, 
        {
            "buffer" : 0, 
            "byteLength" : 144, 
            "byteOffset" : 2664, 
            "target" : 34962
        }
    ], 
    "buffers" : [
        {
            "byteLength" : 2808, 
            "uri" : "block_set.bin"
        }
    ], 
    "cameras" : [
        {
            "name" : "Camera", 
            "perspective" : {
                "aspectRatio" : 1.7777777777777777, 
                "yfov" : 0.5033799372418416, 
                "zfar" : 100.0, 
                "znear" : 0.10000000149011612
            }, 
            "type" : "perspective"
        }
    ], 
    "materials" : [
        {
            "name" : "Material", 
            "pbrMetallicRoughness" : {
                "baseColorFactor" : [
                    0.6400000190734865, 
                    0.6400000190734865, 
                    0.6400000190734865, 
                    1.0
                ], 
                "metallicFactor" : 0.0
            }
        }
    ], 
    "meshes" : [
        {
            "name" : "Cube", 
            "primitives" : [
                {
                    "attributes" : {
                        "NORMAL" : 2, 
                        "POSITION" : 1
                    }, 
                    "indices" : 0, 
                    "material" : 0
                }
            ]
        }, 
        {
            "name" : "Cube.001", 
            "primitives" : [
                {
                    "attributes" : {
                        "NORMAL" : 5, 
                        "POSITION" : 4, 
                        "TANGENT" : 6, 
                        "TEXCOORD_0" : 7
                    }, 
                    "indices" : 3, 
                    "material" : 0
                }
            ]
        }, 
        {
            "name" : "Cube.002", 
            "primitives" : [
                {
                    "attributes" : {
                        "NORMAL" : 10, 
                        "POSITION" : 9
                    }, 
                    "indices" : 8, 
                    "material" : 0
                }
            ]
        }, 
        {
            "name" : "Cube.003", 
            "primitives" : [
                {
                    "attributes" : {
                        "NORMAL" : 13, 
                        "POSITION" : 12
                    }, 
                    "indices" : 11, 
                    "material" : 0
                }
            ]
        }, 
        {
            "name" : "Cube.004", 
            "primitives" : [
                {
                    "attributes" : {
                        "NORMAL" : 16, 
                        "POSITION" : 15
                    }, 
                    "indices" : 14, 
                    "material" : 0
                }
            ]
        }, 
        {
            "name" : "Cube.005", 
            "primitives" : [
                {
                    "attributes" : {
                        "NORMAL" : 19, 
                        "POSITION" : 18
                    }, 
                    "indices" : 17
                }
            ]
        }, 
        {
            "name" : "Cube.006", 
            "primitives" : [
                {
                    "attributes" : {
                        "NORMAL" : 22, 
                        "POSITION" : 21
                    }, 
                    "indices" : 20
                }
            ]
        }, 
        {
            "name" : "Cube.007", 
            "primitives" : [
                {
                    "attributes" : {
                        "NORMAL" : 25, 
                        "POSITION" : 24
                    }, 
                    "indices" : 23
                }
            ]
        }, 
        {
            "name" : "Cube.008", 
            "primitives" : [
                {
                    "attributes" : {
                        "NORMAL" : 28, 
                        "POSITION" : 27
                    }, 
                    "indices" : 26
                }
            ]
        }
    ], 
    "nodes" : [
        {
            "camera" : 0, 
            "name" : "Correction_Camera", 
            "rotation" : [
                -0.7071067690849304, 
                -0.0, 
                0.0, 
                0.7071067690849304
            ]
        }, 
        {
            "children" : [
                0
            ], 
            "name" : "Camera", 
            "rotation" : [
                0.483536034822464, 
                0.33687159419059753, 
                -0.20870360732078552, 
                0.7804827094078064
            ], 
            "translation" : [
                7.481131553649902, 
                5.34366512298584, 
                6.5076398849487305
            ]
        }, 
        {
            "mesh" : 8, 
            "name" : "cube_2_side", 
            "translation" : [
                9.064584732055664, 
                0.0, 
                -7.583881378173828
            ]
        }, 
        {
            "mesh" : 6, 
            "name" : "cube_3_side", 
            "translation" : [
                9.064584732055664, 
                0.0, 
                -3.4497203826904297
            ]
        }, 
        {
            "mesh" : 5, 
            "name" : "cube_4_side", 
            "translation" : [
                12.204800605773926, 
                0.0, 
                -3.4892897605895996
            ]
        }, 
        {
            "mesh" : 1, 
            "name" : "flat", 
            "translation" : [
                2.990663766860962, 
                0.0, 
                -7.412104606628418
            ]
        }, 
        {
            "name" : "Lamp", 
            "rotation" : [
                0.16907575726509094, 
                0.7558802962303162, 
                -0.27217137813568115, 
                0.570947527885437
            ], 
            "scale" : [
                1.0, 
                1.0, 
                0.9999999403953552
            ], 
            "translation" : [
                4.076245307922363, 
                5.903861999511719, 
                -1.0054539442062378
            ]
        }, 
        {
            "mesh" : 7, 
            "name" : "stairs", 
            "translation" : [
                -4.646159648895264, 
                0.0, 
                -3.0499260425567627
            ]
        }, 
        {
            "mesh" : 3, 
            "name" : "top_corner", 
            "translation" : [
                6.073910713195801, 
                0.0, 
                -3.5587432384490967
            ]
        }, 
        {
            "mesh" : 2, 
            "name" : "top_edge", 
            "translation" : [
                3.1246771812438965, 
                0.0, 
                -3.251250982284546
            ]
        }, 
        {
            "mesh" : 0, 
            "name" : "wall", 
            "translation" : [
                -0.5394792556762695, 
                0.0, 
                -3.2020187377929688
            ]
        }, 
        {
            "mesh" : 4, 
            "name" : "wall_edge", 
            "translation" : [
                6.055459976196289, 
                0.0, 
                -7.6085615158081055
            ]
        }
    ], 
    "scene" : 0, 
    "scenes" : [
        {
            "name" : "Scene", 
            "nodes" : [
                2, 
                7, 
                3, 
                4, 
                11, 
                8, 
                9, 
                5, 
                10, 
                6, 
                1
            ]
        }
    ]
}
