{
    "accessors" : [
        {
            "bufferView" : 0, 
            "componentType" : 5123, 
            "count" : 540, 
            "max" : [
                328
            ], 
            "min" : [
                0
            ], 
            "type" : "SCALAR"
        }, 
        {
            "bufferView" : 1, 
            "componentType" : 5126, 
            "count" : 329, 
            "max" : [
                1.0000004768371582, 
                1.0, 
                1.0702955722808838
            ], 
            "min" : [
                -1.0000003576278687, 
                -1.0, 
                -1.0000003576278687
            ], 
            "type" : "VEC3"
        }, 
        {
            "bufferView" : 2, 
            "componentType" : 5126, 
            "count" : 329, 
            "max" : [
                1.0, 
                1.0, 
                0.9999999403953552
            ], 
            "min" : [
                -1.0, 
                -1.0, 
                -1.0
            ], 
            "type" : "VEC3"
        }, 
        {
            "bufferView" : 3, 
            "componentType" : 5121, 
            "count" : 60, 
            "max" : [
                59
            ], 
            "min" : [
                0
            ], 
            "type" : "SCALAR"
        }, 
        {
            "bufferView" : 4, 
            "componentType" : 5126, 
            "count" : 60, 
            "max" : [
                1.0016111135482788, 
                1.0, 
                1.0326101779937744
            ], 
            "min" : [
                -1.0657663345336914, 
                -1.0, 
                -1.0000196695327759
            ], 
            "type" : "VEC3"
        }, 
        {
            "bufferView" : 5, 
            "componentType" : 5126, 
            "count" : 60, 
            "max" : [
                1.0, 
                0.9999788403511047, 
                0.9976186156272888
            ], 
            "min" : [
                -0.9983784556388855, 
                -1.0, 
                -0.9999999403953552
            ], 
            "type" : "VEC3"
        }, 
        {
            "bufferView" : 6, 
            "componentType" : 5123, 
            "count" : 1092, 
            "max" : [
                661
            ], 
            "min" : [
                0
            ], 
            "type" : "SCALAR"
        }, 
        {
            "bufferView" : 7, 
            "componentType" : 5126, 
            "count" : 662, 
            "max" : [
                0.6030095815658569, 
                0.9592129588127136, 
                0.9999999403953552
            ], 
            "min" : [
                -0.6029953360557556, 
                -1.0076940059661865, 
                -0.9871321320533752
            ], 
            "type" : "VEC3"
        }, 
        {
            "bufferView" : 8, 
            "componentType" : 5126, 
            "count" : 662, 
            "max" : [
                1.0, 
                0.9999604225158691, 
                0.999555766582489
            ], 
            "min" : [
                -1.0, 
                -0.9993439316749573, 
                -0.999875545501709
            ], 
            "type" : "VEC3"
        }, 
        {
            "bufferView" : 9, 
            "componentType" : 5121, 
            "count" : 36, 
            "max" : [
                23
            ], 
            "min" : [
                0
            ], 
            "type" : "SCALAR"
        }, 
        {
            "bufferView" : 10, 
            "componentType" : 5126, 
            "count" : 24, 
            "max" : [
                1.0, 
                1.0, 
                1.0
            ], 
            "min" : [
                -1.0, 
                -1.0, 
                -1.0
            ], 
            "type" : "VEC3"
        }, 
        {
            "bufferView" : 11, 
            "componentType" : 5126, 
            "count" : 24, 
            "max" : [
                1.0, 
                1.0, 
                1.0
            ], 
            "min" : [
                -1.0, 
                -1.0, 
                -1.0
            ], 
            "type" : "VEC3"
        }, 
        {
            "bufferView" : 12, 
            "componentType" : 5123, 
            "count" : 2460, 
            "max" : [
                1309
            ], 
            "min" : [
                0
            ], 
            "type" : "SCALAR"
        }, 
        {
            "bufferView" : 13, 
            "componentType" : 5126, 
            "count" : 1310, 
            "max" : [
                1.0, 
                1.0866360664367676, 
                1.7498178482055664
            ], 
            "min" : [
                -1.0, 
                -1.0, 
                -1.234102725982666
            ], 
            "type" : "VEC3"
        }, 
        {
            "bufferView" : 14, 
            "componentType" : 5126, 
            "count" : 1310, 
            "max" : [
                0.9832863807678223, 
                1.0, 
                0.9935465455055237
            ], 
            "min" : [
                -0.9832888245582581, 
                -1.0, 
                -0.9935455322265625
            ], 
            "type" : "VEC3"
        }
    ], 
    "asset" : {
        "generator" : "Khronos Blender glTF 2.0 exporter", 
        "version" : "2.0"
    }, 
    "bufferViews" : [
        {
            "buffer" : 0, 
            "byteLength" : 1080, 
            "byteOffset" : 0, 
            "target" : 34963
        }, 
        {
            "buffer" : 0, 
            "byteLength" : 3948, 
            "byteOffset" : 1080, 
            "target" : 34962
        }, 
        {
            "buffer" : 0, 
            "byteLength" : 3948, 
            "byteOffset" : 5028, 
            "target" : 34962
        }, 
        {
            "buffer" : 0, 
            "byteLength" : 60, 
            "byteOffset" : 8976, 
            "target" : 34963
        }, 
        {
            "buffer" : 0, 
            "byteLength" : 720, 
            "byteOffset" : 9036, 
            "target" : 34962
        }, 
        {
            "buffer" : 0, 
            "byteLength" : 720, 
            "byteOffset" : 9756, 
            "target" : 34962
        }, 
        {
            "buffer" : 0, 
            "byteLength" : 2184, 
            "byteOffset" : 10476, 
            "target" : 34963
        }, 
        {
            "buffer" : 0, 
            "byteLength" : 7944, 
            "byteOffset" : 12660, 
            "target" : 34962
        }, 
        {
            "buffer" : 0, 
            "byteLength" : 7944, 
            "byteOffset" : 20604, 
            "target" : 34962
        }, 
        {
            "buffer" : 0, 
            "byteLength" : 36, 
            "byteOffset" : 28548, 
            "target" : 34963
        }, 
        {
            "buffer" : 0, 
            "byteLength" : 288, 
            "byteOffset" : 28584, 
            "target" : 34962
        }, 
        {
            "buffer" : 0, 
            "byteLength" : 288, 
            "byteOffset" : 28872, 
            "target" : 34962
        }, 
        {
            "buffer" : 0, 
            "byteLength" : 4920, 
            "byteOffset" : 29160, 
            "target" : 34963
        }, 
        {
            "buffer" : 0, 
            "byteLength" : 15720, 
            "byteOffset" : 34080, 
            "target" : 34962
        }, 
        {
            "buffer" : 0, 
            "byteLength" : 15720, 
            "byteOffset" : 49800, 
            "target" : 34962
        }
    ], 
    "buffers" : [
        {
            "byteLength" : 65520, 
            "uri" : "new_tiles.bin"
        }
    ], 
    "cameras" : [
        {
            "name" : "Camera", 
            "perspective" : {
                "aspectRatio" : 1.7777777777777777, 
                "yfov" : 0.5033799372418416, 
                "zfar" : 100.0, 
                "znear" : 0.10000000149011612
            }, 
            "type" : "perspective"
        }
    ], 
    "materials" : [
        {
            "name" : "Material", 
            "pbrMetallicRoughness" : {
                "baseColorFactor" : [
                    0.6400000190734865, 
                    0.6400000190734865, 
                    0.6400000190734865, 
                    1.0
                ], 
                "metallicFactor" : 0.0
            }
        }
    ], 
    "meshes" : [
        {
            "name" : "Cube", 
            "primitives" : [
                {
                    "attributes" : {
                        "NORMAL" : 2, 
                        "POSITION" : 1
                    }, 
                    "indices" : 0, 
                    "material" : 0
                }
            ]
        }, 
        {
            "name" : "Cube.001", 
            "primitives" : [
                {
                    "attributes" : {
                        "NORMAL" : 5, 
                        "POSITION" : 4
                    }, 
                    "indices" : 3, 
                    "material" : 0
                }
            ]
        }, 
        {
            "name" : "Cube.002", 
            "primitives" : [
                {
                    "attributes" : {
                        "NORMAL" : 8, 
                        "POSITION" : 7
                    }, 
                    "indices" : 6, 
                    "material" : 0
                }
            ]
        }, 
        {
            "name" : "Cube.003", 
            "primitives" : [
                {
                    "attributes" : {
                        "NORMAL" : 11, 
                        "POSITION" : 10
                    }, 
                    "indices" : 9
                }
            ]
        }, 
        {
            "name" : "Cylinder", 
            "primitives" : [
                {
                    "attributes" : {
                        "NORMAL" : 14, 
                        "POSITION" : 13
                    }, 
                    "indices" : 12
                }
            ]
        }
    ], 
    "nodes" : [
        {
            "camera" : 0, 
            "name" : "Correction_Camera", 
            "rotation" : [
                -0.7071067690849304, 
                -0.0, 
                0.0, 
                0.7071067690849304
            ]
        }, 
        {
            "children" : [
                0
            ], 
            "name" : "Camera", 
            "rotation" : [
                0.483536034822464, 
                0.33687159419059753, 
                -0.20870360732078552, 
                0.7804827094078064
            ], 
            "translation" : [
                11.545433044433594, 
                5.34366512298584, 
                6.5076398849487305
            ]
        }, 
        {
            "mesh" : 0, 
            "name" : "Cube"
        }, 
        {
            "mesh" : 1, 
            "name" : "Cube.001", 
            "translation" : [
                -2.1692490577697754, 
                0.0, 
                -0.0
            ]
        }, 
        {
            "mesh" : 2, 
            "name" : "Cube.002", 
            "translation" : [
                2.4943289756774902, 
                0.0, 
                -0.0
            ]
        }, 
        {
            "mesh" : 3, 
            "name" : "Cube.003", 
            "translation" : [
                7.736998558044434, 
                0.40119409561157227, 
                0.15625104308128357
            ]
        }, 
        {
            "mesh" : 4, 
            "name" : "Cylinder", 
            "rotation" : [
                0.17009678483009338, 
                0.09508336335420609, 
                0.08380743116140366, 
                0.9772424101829529
            ], 
            "scale" : [
                0.5492058992385864, 
                0.5492058992385864, 
                0.5492058992385864
            ], 
            "translation" : [
                5.1253509521484375, 
                -0.12604773044586182, 
                -0.09687960147857666
            ]
        }, 
        {
            "name" : "Lamp", 
            "rotation" : [
                0.16907575726509094, 
                0.7558802962303162, 
                -0.27217137813568115, 
                0.570947527885437
            ], 
            "scale" : [
                1.0, 
                1.0, 
                0.9999999403953552
            ], 
            "translation" : [
                4.076245307922363, 
                5.903861999511719, 
                -1.0054539442062378
            ]
        }
    ], 
    "scene" : 0, 
    "scenes" : [
        {
            "name" : "Scene", 
            "nodes" : [
                5, 
                6, 
                4, 
                3, 
                2, 
                7, 
                1
            ]
        }
    ]
}
