{
    "accessors" : [
        {
            "bufferView" : 0, 
            "componentType" : 5121, 
            "count" : 252, 
            "max" : [
                60
            ], 
            "min" : [
                0
            ], 
            "type" : "SCALAR"
        }, 
        {
            "bufferView" : 1, 
            "componentType" : 5126, 
            "count" : 61, 
            "max" : [
                0.9810099005699158, 
                1.2552781105041504, 
                1.0
            ], 
            "min" : [
                -0.9749279022216797, 
                -1.0, 
                -1.0
            ], 
            "type" : "VEC3"
        }, 
        {
            "bufferView" : 2, 
            "componentType" : 5126, 
            "count" : 61, 
            "max" : [
                0.9927060604095459, 
                0.8143559098243713, 
                1.0
            ], 
            "min" : [
                -0.9749137759208679, 
                -0.6730857491493225, 
                -1.0
            ], 
            "type" : "VEC3"
        }, 
        {
            "bufferView" : 3, 
            "componentType" : 5126, 
            "count" : 61, 
            "max" : [
                1.9372106790542603, 
                0.9505344033241272
            ], 
            "min" : [
                -0.9763540029525757, 
                0.020792841911315918
            ], 
            "type" : "VEC2"
        }, 
        {
            "bufferView" : 4, 
            "componentType" : 5123, 
            "count" : 828, 
            "max" : [
                270
            ], 
            "min" : [
                0
            ], 
            "type" : "SCALAR"
        }, 
        {
            "bufferView" : 5, 
            "componentType" : 5126, 
            "count" : 271, 
            "max" : [
                0.9810099005699158, 
                1.2552781105041504, 
                1.0
            ], 
            "min" : [
                -0.9749279022216797, 
                -1.0, 
                -1.0
            ], 
            "type" : "VEC3"
        }, 
        {
            "bufferView" : 6, 
            "componentType" : 5126, 
            "count" : 271, 
            "max" : [
                0.9899289011955261, 
                0.9999724626541138, 
                1.0
            ], 
            "min" : [
                -1.0, 
                -1.0, 
                -1.0
            ], 
            "type" : "VEC3"
        }, 
        {
            "bufferView" : 7, 
            "componentType" : 5126, 
            "count" : 271, 
            "max" : [
                0.8784643411636353, 
                1.0
            ], 
            "min" : [
                0.0, 
                0.13159632682800293
            ], 
            "type" : "VEC2"
        }
    ], 
    "asset" : {
        "generator" : "Khronos Blender glTF 2.0 exporter", 
        "version" : "2.0"
    }, 
    "bufferViews" : [
        {
            "buffer" : 0, 
            "byteLength" : 252, 
            "byteOffset" : 0, 
            "target" : 34963
        }, 
        {
            "buffer" : 0, 
            "byteLength" : 732, 
            "byteOffset" : 252, 
            "target" : 34962
        }, 
        {
            "buffer" : 0, 
            "byteLength" : 732, 
            "byteOffset" : 984, 
            "target" : 34962
        }, 
        {
            "buffer" : 0, 
            "byteLength" : 488, 
            "byteOffset" : 1716, 
            "target" : 34962
        }, 
        {
            "buffer" : 0, 
            "byteLength" : 1656, 
            "byteOffset" : 2204, 
            "target" : 34963
        }, 
        {
            "buffer" : 0, 
            "byteLength" : 3252, 
            "byteOffset" : 3860, 
            "target" : 34962
        }, 
        {
            "buffer" : 0, 
            "byteLength" : 3252, 
            "byteOffset" : 7112, 
            "target" : 34962
        }, 
        {
            "buffer" : 0, 
            "byteLength" : 2168, 
            "byteOffset" : 10364, 
            "target" : 34962
        }
    ], 
    "buffers" : [
        {
            "byteLength" : 12532, 
            "uri" : "log.bin"
        }
    ], 
    "cameras" : [
        {
            "name" : "Camera", 
            "perspective" : {
                "aspectRatio" : 1.7777777777777777, 
                "yfov" : 0.5033799372418416, 
                "zfar" : 100.0, 
                "znear" : 0.10000000149011612
            }, 
            "type" : "perspective"
        }
    ], 
    "images" : [
        {
            "uri" : "wood_2.png"
        }, 
        {
            "uri" : "tree_rings.png"
        }
    ], 
    "materials" : [
        {
            "name" : "bark", 
            "pbrMetallicRoughness" : {
                "baseColorFactor" : [
                    0.6400000190734865, 
                    0.6400000190734865, 
                    0.6400000190734865, 
                    1.0
                ], 
                "baseColorTexture" : {
                    "index" : 0
                }, 
                "metallicFactor" : 0.0
            }
        }, 
        {
            "name" : "rings", 
            "pbrMetallicRoughness" : {
                "baseColorFactor" : [
                    0.6400000190734865, 
                    0.6400000190734865, 
                    0.6400000190734865, 
                    1.0
                ], 
                "baseColorTexture" : {
                    "index" : 1
                }, 
                "metallicFactor" : 0.0
            }
        }
    ], 
    "meshes" : [
        {
            "name" : "Cylinder", 
            "primitives" : [
                {
                    "attributes" : {
                        "NORMAL" : 2, 
                        "POSITION" : 1, 
                        "TEXCOORD_0" : 3
                    }, 
                    "indices" : 0, 
                    "material" : 0
                }, 
                {
                    "attributes" : {
                        "NORMAL" : 6, 
                        "POSITION" : 5, 
                        "TEXCOORD_0" : 7
                    }, 
                    "indices" : 4, 
                    "material" : 1
                }
            ]
        }
    ], 
    "nodes" : [
        {
            "camera" : 0, 
            "name" : "Correction_Camera", 
            "rotation" : [
                -0.7071067690849304, 
                -0.0, 
                0.0, 
                0.7071067690849304
            ]
        }, 
        {
            "children" : [
                0
            ], 
            "name" : "Camera", 
            "rotation" : [
                0.483536034822464, 
                0.33687159419059753, 
                -0.20870360732078552, 
                0.7804827094078064
            ], 
            "translation" : [
                7.481131553649902, 
                5.34366512298584, 
                6.5076398849487305
            ]
        }, 
        {
            "mesh" : 0, 
            "name" : "Cylinder", 
            "rotation" : [
                0.062133803963661194, 
                0.00919143483042717, 
                -0.019760534167289734, 
                0.9978299736976624
            ], 
            "scale" : [
                0.9999999403953552, 
                1.0, 
                1.0
            ]
        }, 
        {
            "name" : "Lamp", 
            "rotation" : [
                0.16907575726509094, 
                0.7558802962303162, 
                -0.27217137813568115, 
                0.570947527885437
            ], 
            "scale" : [
                1.0, 
                1.0, 
                0.9999999403953552
            ], 
            "translation" : [
                4.076245307922363, 
                5.903861999511719, 
                -1.0054539442062378
            ]
        }
    ], 
    "samplers" : [
        {}
    ], 
    "scene" : 0, 
    "scenes" : [
        {
            "name" : "Scene", 
            "nodes" : [
                2, 
                3, 
                1
            ]
        }
    ], 
    "textures" : [
        {
            "sampler" : 0, 
            "source" : 0
        }, 
        {
            "sampler" : 0, 
            "source" : 1
        }
    ]
}
