{
    "accessors": [
        {
            "bufferView": 0,
            "byteOffset": 0,
            "componentType": 5126,
            "count": 1089,
            "max": [
                51.28351593017578,
                50.000457763671875,
                11.131330490112305
            ],
            "min": [
                -50.544395446777344,
                -51.808589935302734,
                -2.0928149223327637
            ],
            "name": "accessor_buffer_Plane_POSITION_0",
            "type": "VEC3"
        },
        {
            "bufferView": 1,
            "byteOffset": 0,
            "componentType": 5126,
            "count": 1089,
            "max": [
                0.7860652208328247,
                0.7063814401626587,
                0.999969482421875
            ],
            "min": [
                -0.7885677814483643,
                -0.5412152409553528,
                0.4752952754497528
            ],
            "name": "accessor_buffer_Plane_NORMAL_0",
            "type": "VEC3"
        },
        {
            "bufferView": 2,
            "byteOffset": 0,
            "componentType": 5126,
            "count": 1089,
            "max": [
                0.9964948296546936,
                0.9964948296546936
            ],
            "min": [
                0.003505229949951172,
                0.0035051703453063965
            ],
            "name": "accessor_buffer_Plane_TEXCOORD_0_0",
            "type": "VEC2"
        },
        {
            "bufferView": 3,
            "byteOffset": 0,
            "componentType": 5123,
            "count": 6144,
            "max": [
                1088
            ],
            "min": [
                0
            ],
            "name": "accessor_buffer_Plane_0",
            "type": "SCALAR"
        }
    ],
    "asset": {
        "version": "2.0"
    },
    "bufferViews": [
        {
            "buffer": 0,
            "byteLength": 13068,
            "byteOffset": 0,
            "byteStride": 12,
            "name": "bufferView_buffer_Plane_POSITION_0",
            "target": 34962
        },
        {
            "buffer": 0,
            "byteLength": 13068,
            "byteOffset": 13068,
            "byteStride": 12,
            "name": "bufferView_buffer_Plane_NORMAL_0",
            "target": 34962
        },
        {
            "buffer": 0,
            "byteLength": 8712,
            "byteOffset": 26136,
            "byteStride": 8,
            "name": "bufferView_buffer_Plane_TEXCOORD_0_0",
            "target": 34962
        },
        {
            "buffer": 0,
            "byteLength": 12288,
            "byteOffset": 34848,
            "name": "bufferView_buffer_Plane_0",
            "target": 34963
        }
    ],
    "buffers": [
        {
            "byteLength": 47136,
            "name": "buffer_base",
            "uri": "buffer_base.bin"
        }
    ],
    "images": [
        {
            "name": "ground.png",
            "uri": "ground.png"
        }
    ],
    "materials": [
        {
            "emissiveFactor": [
                0.0,
                0.0,
                0.0
            ],
            "name": "ground",
            "pbrMetallicRoughness": {
                "baseColorFactor": [
                    0.5021898150444031,
                    0.5021898150444031,
                    0.5021898150444031,
                    1.0
                ],
                "baseColorTexture": {
                    "index": 0,
                    "texCoord": 0
                },
                "metallicFactor": 0.0,
                "roughnessFactor": 1.0
            }
        }
    ],
    "meshes": [
        {
            "name": "Plane",
            "primitives": [
                {
                    "attributes": {
                        "NORMAL": 1,
                        "POSITION": 0,
                        "TEXCOORD_0": 2
                    },
                    "indices": 3,
                    "material": 0,
                    "mode": 4
                }
            ]
        }
    ],
    "nodes": [
        {
            "mesh": 0,
            "name": "Plane",
            "rotation": [
                0.0,
                0.0,
                0.0,
                1.0
            ],
            "scale": [
                1.0,
                1.0,
                1.0
            ],
            "translation": [
                0.0,
                0.0,
                0.0
            ]
        },
        {
            "children": [
                0
            ],
            "matrix": [
                -1.0,
                0.0,
                0.0,
                0.0,
                0.0,
                0.0,
                1.0,
                0.0,
                0.0,
                1.0,
                0.0,
                0.0,
                0.0,
                0.0,
                0.0,
                1.0
            ],
            "name": "Scene_root"
        }
    ],
    "samplers": [
        {
            "magFilter": 9729,
            "minFilter": 9987,
            "name": "Texture",
            "wrapS": 10497,
            "wrapT": 10497
        }
    ],
    "scene": 0,
    "scenes": [
        {
            "extras": {
                "background_color": [
                    0.05087608844041824,
                    0.05087608844041824,
                    0.05087608844041824
                ],
                "frames_per_second": 24
            },
            "name": "Scene",
            "nodes": [
                1
            ]
        }
    ],
    "textures": [
        {
            "name": "Texture",
            "sampler": 0,
            "source": 0
        }
    ]
}
