# Blender v2.79 (sub 0) OBJ File: ''
# www.blender.org
mtllib wand.mtl
o Cylinder
v -0.000000 -2.977453 0.000000
v 0.557562 10.831183 -0.888626
v 0.998555 11.002932 0.069026
v 0.440993 10.801593 0.957651
v -0.557562 10.428510 0.888626
v -0.998555 10.256763 -0.069026
v -0.440993 10.458100 -0.957651
v -0.000000 -1.653514 -0.182063
v -0.368684 1.962402 -0.683834
v -0.000000 6.139075 -0.619569
v 0.536563 6.139075 -0.309784
v 0.407875 1.962402 -0.661207
v 0.157671 -1.653514 -0.091031
v 0.536563 6.139075 0.309785
v 0.776560 1.962402 0.022627
v 0.157671 -1.653514 0.091031
v -0.000000 6.139075 0.619569
v 0.368684 1.962402 0.683834
v -0.000000 -1.653514 0.182063
v -0.536563 6.139075 0.309784
v -0.407875 1.962402 0.661207
v -0.157671 -1.653514 0.091031
v -0.536563 6.139075 -0.309784
v -0.776559 1.962402 -0.022627
v -0.157671 -1.653514 -0.091031
v -0.037543 17.449417 -1.503290
v -0.000000 13.694750 -1.717110
v -0.000000 12.814116 -1.541782
v -0.000000 12.469965 -2.146358
v -0.000000 10.956052 -1.717110
v -0.000000 10.346633 -0.952924
v -0.000000 10.129134 -0.000000
v -0.241024 17.229784 -2.940022
v 0.192201 17.492870 -1.562726
v 1.487061 13.694750 -1.105870
v 1.854335 12.814116 -1.070601
v 1.854335 11.836685 -1.070601
v 1.433380 10.600500 -0.858555
v 0.825257 10.346633 -0.476462
v 0.256341 17.710197 -1.645545
v 1.487061 13.694750 1.238270
v 1.854335 12.814116 1.070601
v 1.854335 11.836685 1.070601
v 1.433380 10.600500 0.858555
v 0.825257 10.346633 0.476462
v 0.090735 17.884069 -1.668925
v -0.000000 13.694750 1.944726
v -0.000000 12.814116 1.609986
v -0.000000 12.426188 2.144928
v -0.000000 10.956052 1.717110
v -0.000000 10.346633 0.952924
v -0.139010 17.840616 -1.609489
v -1.487061 13.694750 0.655695
v -2.514867 12.814116 0.626068
v -2.514867 11.836685 0.603929
v -1.487061 10.956052 0.858555
v -0.825257 10.346633 0.476462
v -0.203149 17.623289 -1.526672
v -1.487061 13.694750 -0.655696
v -2.514867 12.814116 -0.626069
v -2.514867 11.836685 -0.603930
v -1.487061 10.956052 -0.858556
v -0.825257 10.346633 -0.476463
v 0.000000 14.594193 -0.733206
v -0.000000 14.214539 -1.225158
v 0.634975 14.594193 -0.366603
v 1.061018 14.214539 -0.612579
v 0.634975 14.594193 0.366603
v 1.061018 14.214539 0.612579
v -0.000000 14.594193 0.733206
v -0.000000 14.214539 1.225158
v -0.634975 14.594193 0.366603
v -1.334641 14.380775 0.612579
v -0.634975 14.594193 -0.366603
v -1.334640 14.380775 -0.612580
v -0.060165 17.169964 -1.115816
v 0.000000 16.345886 -0.569222
v 0.321701 17.284319 -1.042881
v 0.492961 16.345886 -0.284611
v 0.395441 17.606901 -0.808954
v 0.492961 16.345886 0.284611
v 0.087314 17.815128 -0.647964
v -0.000000 16.345886 0.569222
v -0.294551 17.700773 -0.720900
v -0.492961 16.345886 0.284611
v -0.368291 17.378191 -0.954826
v -0.492961 16.345886 -0.284611
v -0.000000 11.396368 -1.790838
v 1.670698 11.396368 -0.964578
v 1.670698 11.396368 0.964578
v -0.000000 11.396368 1.811613
v -2.154099 11.308243 0.731242
v -2.154099 11.308243 -0.731243
v 0.000000 15.470039 -0.921475
v 0.798021 15.470039 -0.460738
v 0.798021 15.470039 0.460737
v -0.000000 15.470039 0.921475
v -0.798021 15.470039 0.460737
v -0.798021 15.470039 -0.460738
vn 0.7945 -0.0779 -0.6022
vn 0.9386 -0.0725 0.3373
vn 0.1751 -0.0877 0.9806
vn -0.7831 -0.0869 0.6158
vn -0.3496 0.9369 -0.0071
vn -0.9310 -0.0837 -0.3553
vn -0.1327 -0.0908 -0.9870
vn -0.4965 -0.1183 -0.8599
vn -0.7910 -0.1437 -0.5947
vn -0.7164 0.0336 -0.6968
vn -0.9930 -0.1183 0.0000
vn -0.9105 -0.1437 0.3877
vn -0.9617 0.0336 0.2720
vn -0.4965 -0.1183 0.8599
vn -0.1195 -0.1437 0.9824
vn -0.2453 0.0336 0.9689
vn 0.4965 -0.1183 0.8599
vn 0.7910 -0.1437 0.5947
vn 0.7164 0.0336 0.6968
vn 0.9930 -0.1183 0.0000
vn 0.9105 -0.1437 -0.3877
vn 0.9617 0.0336 -0.2720
vn 0.4965 -0.1183 -0.8599
vn 0.1195 -0.1437 -0.9824
vn 0.2453 0.0336 -0.9689
vn 0.1274 -0.9670 -0.2207
vn 0.4074 -0.3112 -0.8586
vn 0.3078 -0.0494 -0.9502
vn 0.2139 -0.9697 0.1179
vn 0.1817 -0.8294 -0.5283
vn 0.4106 0.3793 -0.8292
vn 0.2289 -0.8458 -0.4819
vn 0.9563 -0.1797 -0.2307
vn 0.2549 -0.9670 0.0000
vn 0.9229 -0.3849 0.0000
vn 0.9229 0.3849 0.0000
vn 0.9100 -0.3520 -0.2190
vn 0.3852 -0.9228 0.0000
vn 1.0000 0.0000 0.0000
vn 0.1274 -0.9670 0.2207
vn 0.4152 -0.3077 0.8561
vn 0.3429 -0.1909 0.9198
vn 0.6697 0.5746 -0.4705
vn 0.1817 -0.8294 0.5283
vn 0.4202 0.3310 0.8449
vn 0.6321 0.7745 0.0256
vn -0.4533 -0.2192 0.8640
vn -0.4910 0.1077 0.8645
vn -0.2667 0.8835 -0.3851
vn -0.3387 -0.7356 0.5866
vn -0.4551 0.3131 0.8336
vn -0.2507 0.9644 0.0846
vn -0.1274 -0.9670 0.2207
vn -0.9628 0.2658 -0.0482
vn -0.6774 -0.7356 0.0000
vn -1.0000 -0.0000 0.0000
vn -0.9504 0.2804 -0.1348
vn -0.2549 -0.9670 0.0000
vn -0.8259 -0.5638 0.0000
vn -0.6506 0.7594 0.0000
vn -0.3387 -0.7356 -0.5866
vn -0.4458 0.3610 -0.8191
vn -0.6341 -0.6195 -0.4628
vn -0.1274 -0.9670 -0.2207
vn -0.4478 -0.2241 -0.8656
vn -0.4378 0.1524 -0.8861
vn -0.7225 -0.6608 0.2033
vn -0.4476 0.4094 -0.7951
vn -0.1806 0.8432 -0.5064
vn -0.9762 0.2169 -0.0000
vn -0.2918 0.9565 0.0000
vn -0.4576 0.5159 0.7242
vn -0.1806 0.8432 0.5064
vn 0.2753 0.8009 0.5318
vn 0.3326 0.7466 0.5762
vn 0.7734 0.6339 0.0000
vn 0.6653 0.7466 0.0000
vn 0.3013 0.7181 -0.6274
vn 0.3326 0.7466 -0.5762
vn -0.4722 0.3289 -0.8178
vn -0.5202 -0.4555 -0.7224
vn -0.9444 0.3289 0.0000
vn -0.9877 0.1539 0.0289
vn -0.4722 0.3289 0.8178
vn -0.3690 0.5976 0.7118
vn 0.4722 0.3289 0.8178
vn 0.5096 0.5570 0.6558
vn 0.9444 0.3289 0.0000
vn 0.9939 0.0334 -0.1047
vn 0.4722 0.3289 -0.8178
vn 0.3808 -0.5174 -0.7664
vn -0.4371 -0.3108 -0.8440
vn -0.4669 -0.8843 0.0000
vn -0.4369 -0.3331 0.8356
vn 0.4490 -0.2264 0.8644
vn 0.9583 -0.2858 0.0000
vn 0.4473 -0.2122 -0.8689
vn 0.4916 -0.1830 -0.8514
vn 0.9831 -0.1830 0.0000
vn 0.4916 -0.1830 0.8514
vn -0.4916 -0.1830 0.8514
vn -0.9831 -0.1830 -0.0000
vn -0.4916 -0.1830 -0.8514
usemtl None
s off
f 10//1 2//1 3//1 11//1
f 11//2 3//2 4//2 14//2
f 14//3 4//3 5//3 17//3
f 17//4 5//4 6//4 20//4
f 3//5 2//5 7//5 6//5 5//5 4//5
f 20//6 6//6 7//6 23//6
f 23//7 7//7 2//7 10//7
f 1//8 25//8 8//8
f 25//9 24//9 9//9 8//9
f 24//10 23//10 10//10 9//10
f 1//11 22//11 25//11
f 22//12 21//12 24//12 25//12
f 21//13 20//13 23//13 24//13
f 1//14 19//14 22//14
f 19//15 18//15 21//15 22//15
f 18//16 17//16 20//16 21//16
f 1//17 16//17 19//17
f 16//18 15//18 18//18 19//18
f 15//19 14//19 17//19 18//19
f 1//20 13//20 16//20
f 13//21 12//21 15//21 16//21
f 12//22 11//22 14//22 15//22
f 1//23 8//23 13//23
f 8//24 9//24 12//24 13//24
f 9//25 10//25 11//25 12//25
f 32//26 31//26 39//26
f 88//27 29//27 37//27 89//27
f 28//28 27//28 35//28 36//28
f 26//29 33//29 34//29
f 31//30 30//30 38//30 39//30
f 29//31 28//31 36//31 37//31
f 76//32 26//32 34//32 78//32
f 78//33 34//33 40//33 80//33
f 32//34 39//34 45//34
f 89//35 37//35 43//35 90//35
f 36//36 35//36 41//36 42//36
f 34//37 33//37 40//37
f 39//38 38//38 44//38 45//38
f 37//39 36//39 42//39 43//39
f 32//40 45//40 51//40
f 90//41 43//41 49//41 91//41
f 42//42 41//42 47//42 48//42
f 40//43 33//43 46//43
f 45//44 44//44 50//44 51//44
f 43//45 42//45 48//45 49//45
f 80//46 40//46 46//46 82//46
f 91//47 49//47 55//47 92//47
f 48//48 47//48 53//48 54//48
f 46//49 33//49 52//49
f 51//50 50//50 56//50 57//50
f 49//51 48//51 54//51 55//51
f 82//52 46//52 52//52 84//52
f 32//53 51//53 57//53
f 52//54 33//54 58//54
f 57//55 56//55 62//55 63//55
f 55//56 54//56 60//56 61//56
f 84//57 52//57 58//57 86//57
f 32//58 57//58 63//58
f 92//59 55//59 61//59 93//59
f 54//60 53//60 59//60 60//60
f 63//61 62//61 30//61 31//61
f 61//62 60//62 28//62 29//62
f 86//63 58//63 26//63 76//63
f 32//64 63//64 31//64
f 93//65 61//65 29//65 88//65
f 60//66 59//66 27//66 28//66
f 58//67 33//67 26//67
f 59//68 75//68 65//68 27//68
f 75//69 74//69 64//69 65//69
f 53//70 73//70 75//70 59//70
f 73//71 72//71 74//71 75//71
f 47//72 71//72 73//72 53//72
f 71//73 70//73 72//73 73//73
f 41//74 69//74 71//74 47//74
f 69//75 68//75 70//75 71//75
f 35//76 67//76 69//76 41//76
f 67//77 66//77 68//77 69//77
f 27//78 65//78 67//78 35//78
f 65//79 64//79 66//79 67//79
f 99//80 87//80 77//80 94//80
f 87//81 86//81 76//81 77//81
f 98//82 85//82 87//82 99//82
f 85//83 84//83 86//83 87//83
f 97//84 83//84 85//84 98//84
f 83//85 82//85 84//85 85//85
f 96//86 81//86 83//86 97//86
f 81//87 80//87 82//87 83//87
f 95//88 79//88 81//88 96//88
f 79//89 78//89 80//89 81//89
f 94//90 77//90 79//90 95//90
f 77//91 76//91 78//91 79//91
f 62//92 93//92 88//92 30//92
f 56//93 92//93 93//93 62//93
f 50//94 91//94 92//94 56//94
f 44//95 90//95 91//95 50//95
f 38//96 89//96 90//96 44//96
f 30//97 88//97 89//97 38//97
f 64//98 94//98 95//98 66//98
f 66//99 95//99 96//99 68//99
f 68//100 96//100 97//100 70//100
f 70//101 97//101 98//101 72//101
f 72//102 98//102 99//102 74//102
f 74//103 99//103 94//103 64//103
